# xmcd CD database file
#
# Track frame offsets:
#	150
#	11411
#	22868
#	35640
#	50635
#	66781
#	81349
#	94112
#	104827
#	117313
#	129868
#	141425
#	152782
#	164419
#	177103
#	191551
#	204759
#	216261
#	230177
#	244577
#	258374
#	271518
#
# Disc length: 3750 seconds
#
# Revision: 0
# Processed by: cddbd v1.4PL0 Copyright (c) Steve Scherf et al.
# Submitted via: CDex 1.50beta10
#
DISCID=330ea416
DTITLE=Jaime Llano Gonzales con Garzon y Torrado - Paisaje Colombiano
DYEAR=1999
DGENRE=Folklorica Colombiana
TTITLE0=Yo tambien tuve Veinte Años
TTITLE1=Al Sur
TTITLE2=Pescador, Lucero y Rio
TTITLE3=Arrunchaditos
TTITLE4=Pajaro Diostede
TTITLE5=Amo mucho tus ojos
TTITLE6=Soñar Contigo
TTITLE7=El Trapiche
TTITLE8=Amor Imposible
TTITLE9=Ojala no Crecieras
TTITLE10=Los Cucaracheros
TTITLE11=Guabina Chiquinquireña
TTITLE12=Camino Viejo
TTITLE13=Tupinamba
TTITLE14=Acibar en los Labios
TTITLE15=Los Sauces
TTITLE16=Chatica Linda
TTITLE17=Sabor de Mejorana
TTITLE18=Espumas
TTITLE19=Los Remansos
TTITLE20=El Boga
TTITLE21=El Sanjuanero
EXTD=YEAR: 1999
EXTT0=
EXTT1=
EXTT2=
EXTT3=
EXTT4=
EXTT5=
EXTT6=
EXTT7=
EXTT8=
EXTT9=
EXTT10=
EXTT11=
EXTT12=
EXTT13=
EXTT14=
EXTT15=
EXTT16=
EXTT17=
EXTT18=
EXTT19=
EXTT20=
EXTT21=
PLAYORDER=
